<?xml version="1.0" standalone="no"?>
<!DOCTYPE svg PUBLIC "-//W3C//DTD SVG 20010904//EN"
 "http://www.w3.org/TR/2001/REC-SVG-20010904/DTD/svg10.dtd">
<svg version="1.0" xmlns="http://www.w3.org/2000/svg"
 width="800.000000pt" height="800.000000pt" viewBox="0 0 800.000000 800.000000"
 preserveAspectRatio="xMidYMid meet">
<g transform="translate(0.000000,800.000000) scale(0.100000,-0.100000)"
fill="currentColor" stroke="none">
<path d="M3296 5216 c-15 -9 -44 -16 -62 -16 -35 0 -58 -19 -141 -116 -35 -41
-38 -49 -24 -58 13 -8 41 4 41 17 0 14 49 57 65 57 7 0 15 6 18 14 3 8 23 17
45 21 21 3 52 13 68 21 51 27 127 29 183 5 27 -11 68 -21 90 -21 22 0 46 -6
53 -13 18 -19 54 -37 71 -37 8 0 44 -29 81 -65 67 -67 87 -120 57 -150 -5 -6
-15 -66 -22 -135 -11 -102 -17 -127 -34 -142 -11 -11 -27 -25 -36 -33 -9 -8
-20 -15 -25 -15 -31 0 -119 -57 -122 -78 -5 -31 25 -62 58 -62 15 0 33 -7 40
-15 6 -8 21 -17 33 -21 11 -3 36 -21 54 -39 42 -41 99 -50 259 -40 77 5 114 4
114 -3 0 -20 31 -42 58 -42 15 0 35 -9 45 -20 9 -11 29 -20 43 -20 15 0 47
-16 76 -40 28 -22 57 -40 64 -40 8 0 14 -11 14 -26 0 -28 49 -84 74 -84 22 0
20 33 -4 55 -11 10 -20 28 -20 41 0 13 -9 28 -20 34 -11 6 -20 17 -20 25 0 7
-9 16 -19 20 -10 3 -21 15 -24 25 -3 13 -14 20 -29 20 -13 0 -29 9 -36 20 -8
13 -23 20 -42 20 -19 0 -33 7 -40 20 -8 15 -21 20 -56 20 -24 0 -55 6 -67 14
-13 9 -66 17 -132 21 -73 5 -116 12 -126 22 -9 8 -33 15 -54 16 -20 2 -42 10
-49 18 -6 8 -19 18 -28 22 -25 9 -23 67 2 100 11 14 20 30 20 36 0 6 18 20 40
31 22 11 40 26 40 32 0 6 19 29 43 50 42 39 42 40 40 105 -1 40 -8 72 -17 82
-7 9 -17 32 -21 51 -4 19 -16 43 -26 53 -11 10 -19 24 -19 32 0 13 -66 83
-125 133 -16 13 -40 22 -60 22 -20 0 -35 6 -39 15 -4 12 -24 15 -87 15 -61 0
-87 4 -100 16 -26 23 -127 29 -163 10z"/>
<path d="M3037 5003 c-4 -3 -7 -15 -7 -25 0 -10 -10 -22 -24 -27 -13 -5 -26
-17 -29 -25 -10 -25 -83 -22 -97 4 -18 33 -88 28 -100 -7 -6 -16 -15 -36 -20
-45 -16 -29 -13 -128 5 -134 11 -5 15 -21 15 -60 0 -42 5 -58 20 -71 11 -10
20 -30 20 -45 0 -16 9 -36 20 -45 11 -10 20 -25 20 -35 0 -9 9 -22 20 -28 11
-6 20 -19 20 -29 0 -10 9 -26 20 -36 12 -11 20 -28 18 -39 -3 -20 -8 -21 -93
-16 -208 12 -300 7 -300 -15 0 -19 7 -20 167 -20 158 0 167 -1 190 -22 18 -17
41 -24 96 -29 l72 -7 0 27 c0 16 9 39 20 53 11 14 20 31 20 38 0 7 7 18 15 25
8 7 15 21 15 31 0 10 16 29 36 43 36 24 36 24 73 6 40 -21 209 -16 232 7 12
12 -65 33 -123 33 -48 0 -147 40 -213 86 -33 22 -76 49 -95 59 -19 10 -38 23
-42 29 -6 8 -11 6 -18 -4 -16 -24 -12 -50 8 -50 23 0 92 -73 92 -98 0 -13 -13
-29 -35 -42 -35 -21 -44 -43 -25 -55 14 -9 12 -42 -2 -48 -19 -6 -65 30 -72
57 -3 13 -15 26 -26 29 -12 3 -20 14 -20 25 0 11 -7 22 -15 26 -9 3 -15 19
-15 41 0 23 -7 41 -20 52 -25 22 -29 93 -5 93 9 0 18 -7 21 -15 4 -8 17 -15
30 -15 22 0 24 4 24 45 0 51 16 65 54 47 31 -14 43 11 49 103 3 38 10 71 16
73 6 2 11 17 11 33 0 28 -9 37 -23 22z"/>
<path d="M3172 4999 c-27 -8 -37 -19 -53 -57 -11 -26 -27 -62 -37 -81 -29 -58
-23 -126 13 -156 47 -39 126 -72 191 -79 32 -4 81 -14 108 -22 75 -21 180 -18
246 9 49 20 58 28 83 79 l29 56 -23 67 c-36 102 -83 130 -269 165 -156 30
-232 35 -288 19z m82 -131 c32 -46 1 -118 -51 -118 -23 0 -63 47 -63 74 0 54
85 86 114 44z m340 -59 c31 -37 32 -49 5 -83 -55 -70 -163 1 -112 74 34 51 70
54 107 9z"/>
<path d="M975 4708 c-3 -8 -5 -339 -3 -734 l3 -719 568 -3 c449 -2 569 0 572
10 3 7 1 50 -3 96 -8 87 -2 105 26 78 46 -45 74 -66 88 -66 7 0 23 -9 34 -20
11 -11 30 -20 41 -20 12 0 28 -8 35 -17 9 -13 26 -18 63 -18 39 0 53 -5 65
-20 23 -32 400 -36 452 -6 19 12 48 21 64 21 16 0 37 9 47 19 10 11 31 23 46
26 16 4 31 14 34 21 3 8 10 14 17 14 6 0 32 24 58 53 74 81 87 98 93 118 7 22
47 37 53 19 3 -7 13 -20 23 -28 11 -9 19 -22 19 -29 0 -11 30 -50 60 -78 6 -5
21 -20 32 -32 12 -13 32 -23 44 -23 13 0 24 -8 27 -20 3 -14 14 -20 31 -20 14
0 35 -9 46 -20 14 -14 33 -20 65 -20 25 0 45 -4 45 -10 0 -36 430 -43 480 -7
13 9 36 17 51 17 14 0 37 8 50 19 13 10 35 22 49 26 14 4 33 15 42 24 9 9 23
21 30 27 7 6 25 25 40 41 14 17 30 32 35 34 14 6 53 87 53 109 0 29 -43 24
-48 -5 -2 -11 -12 -29 -23 -40 -10 -11 -32 -35 -48 -52 -17 -18 -35 -33 -40
-33 -6 0 -15 -9 -21 -20 -6 -11 -19 -20 -30 -20 -11 0 -28 -9 -39 -21 -14 -15
-34 -22 -72 -24 -34 -1 -56 -8 -64 -19 -20 -27 -366 -24 -420 4 -22 11 -56 20
-76 20 -20 0 -42 7 -49 15 -6 8 -21 17 -32 21 -11 3 -27 12 -36 20 -78 65
-112 98 -112 109 0 6 -9 20 -20 30 -11 10 -20 28 -20 41 0 13 -9 29 -20 37
-34 24 -41 63 -35 186 8 152 51 287 114 353 14 15 34 36 44 47 9 12 29 21 43
21 39 0 32 64 -8 68 -16 2 -30 11 -33 23 -5 13 -16 19 -38 19 -18 0 -41 7 -51
15 -12 9 -41 15 -71 15 -30 0 -59 -6 -71 -15 -10 -8 -33 -15 -51 -15 -25 0
-38 -8 -60 -37 -15 -21 -36 -45 -46 -53 -18 -15 -17 -18 28 -65 68 -73 111
-149 129 -235 9 -41 21 -95 27 -120 8 -37 7 -46 -5 -56 -18 -13 -21 -34 -6
-34 20 0 10 -62 -15 -92 -14 -16 -25 -38 -25 -48 0 -10 -7 -20 -15 -24 -8 -3
-15 -17 -15 -30 0 -15 -8 -30 -19 -36 -11 -5 -23 -19 -26 -30 -3 -11 -11 -20
-16 -20 -8 0 -17 -7 -70 -55 -9 -8 -23 -15 -32 -15 -9 0 -24 -8 -34 -19 -11
-11 -38 -20 -66 -24 -27 -2 -53 -12 -60 -21 -19 -25 -413 -25 -432 0 -9 13
-26 18 -63 17 -41 -1 -53 3 -57 17 -3 10 -19 22 -35 25 -17 4 -30 13 -30 21 0
8 -8 14 -18 14 -24 0 -102 82 -111 117 -6 21 -14 29 -36 31 -46 6 -55 -17 -55
-134 0 -63 -4 -105 -11 -109 -11 -7 -1000 -7 -1007 0 -12 12 -2 1299 10 1307
20 12 250 -2 274 -18 23 -14 24 -27 38 -807 2 -142 6 -171 20 -185 17 -17 610
-33 671 -18 32 8 51 63 30 86 -17 19 -22 190 -5 190 16 0 44 63 41 98 -1 22 3
32 13 32 8 0 17 14 21 31 5 20 27 50 59 80 28 27 58 55 67 64 9 8 30 15 47 15
21 0 36 7 44 20 9 13 24 20 45 20 46 0 63 9 63 34 0 12 5 27 11 33 8 8 0 10
-32 7 -86 -10 -107 -15 -119 -29 -7 -8 -27 -15 -46 -15 -24 0 -34 -5 -39 -20
-3 -11 -11 -20 -17 -20 -20 0 -98 -71 -104 -95 -3 -13 -14 -25 -25 -28 -11 -3
-19 -14 -19 -26 0 -12 -10 -35 -21 -51 -18 -24 -21 -37 -16 -80 5 -43 3 -54
-14 -71 -18 -18 -20 -31 -18 -109 2 -49 1 -91 -2 -94 -2 -3 -133 -6 -290 -8
l-286 -4 -6 491 c-6 511 -6 518 -41 537 -35 19 -414 24 -421 6z m2452 -388
c14 -11 34 -20 44 -20 10 0 20 -4 23 -9 10 -16 -18 -29 -75 -36 -54 -7 -56 -6
-55 17 1 30 -41 36 -89 14 -37 -18 -61 -20 -69 -7 -7 10 16 21 44 21 10 0 20
9 23 20 4 17 14 20 67 20 47 0 68 -5 87 -20z"/>
<path d="M2945 4570 c-7 -12 15 -90 26 -90 26 0 59 22 59 40 0 40 -67 79 -85
50z"/>
<path d="M5270 4353 c-8 -3 -19 -12 -23 -19 -4 -8 -20 -14 -35 -14 -37 0 -96
-42 -180 -129 l-72 -73 -20 23 c-10 13 -19 35 -20 48 0 24 -50 81 -82 94 -10
3 -18 11 -18 17 0 6 -31 10 -77 10 -125 -1 -128 -5 -129 -199 -2 -185 -1 -181
-14 -181 -5 0 -10 13 -10 29 0 33 -19 54 -39 42 -10 -7 -12 -23 -6 -67 10 -77
10 -218 1 -269 -11 -59 17 -96 36 -47 7 17 16 32 20 32 4 0 9 -170 10 -377 l3
-378 207 0 c274 0 252 -22 256 250 2 113 6 205 8 205 12 0 63 -31 66 -40 2 -6
21 -13 43 -17 22 -3 48 -13 59 -22 32 -28 319 -30 357 -2 15 12 33 21 39 21 6
0 29 18 53 40 130 124 171 160 182 160 14 0 55 -42 55 -57 0 -7 9 -15 20 -18
11 -3 20 -12 20 -20 0 -8 9 -16 19 -20 11 -3 22 -12 25 -20 3 -8 14 -15 24
-15 11 0 31 -11 46 -25 18 -17 38 -25 63 -25 21 0 45 -8 56 -17 17 -16 45 -18
272 -18 227 0 255 2 272 18 12 10 36 17 60 17 51 0 73 8 73 26 0 8 8 14 18 14
10 0 33 11 52 25 19 14 40 25 47 25 8 0 17 8 20 17 4 9 15 25 25 35 10 10 18
27 18 38 0 11 7 20 15 20 11 0 15 -12 15 -44 0 -54 44 -146 70 -146 10 0 29
-9 43 -20 36 -28 144 -28 177 0 13 11 31 20 41 20 44 0 81 86 80 188 l0 95
-43 44 -43 45 -113 -5 c-109 -5 -113 -6 -144 -36 -43 -42 -58 -40 -58 7 0 26
-7 45 -20 57 -11 10 -20 22 -20 27 0 23 -102 108 -130 108 -19 0 -29 6 -33 20
-4 15 -14 20 -41 20 -20 0 -53 9 -73 20 -40 21 -145 28 -172 11 -33 -21 7 -41
84 -41 64 0 74 -3 88 -22 12 -19 23 -23 61 -21 35 1 48 -3 56 -17 5 -10 21
-21 35 -24 14 -4 25 -11 25 -16 0 -6 11 -15 25 -20 15 -6 25 -17 25 -30 0 -11
7 -32 16 -45 21 -33 23 -128 2 -152 -8 -10 -18 -30 -22 -45 -3 -16 -13 -28
-20 -28 -8 0 -28 -11 -44 -25 -17 -14 -37 -25 -45 -25 -9 0 -19 -9 -22 -20 -6
-19 -12 -20 -52 -14 -37 5 -50 3 -75 -16 -29 -21 -37 -22 -266 -21 -194 1
-239 4 -248 16 -6 8 -36 17 -67 21 -31 4 -62 13 -68 20 -6 8 -20 14 -30 14
-11 0 -27 9 -36 20 -10 11 -23 20 -30 20 -7 0 -13 5 -13 10 0 6 -8 18 -17 28
-39 40 -63 82 -65 114 l-3 33 137 0 c148 0 178 9 145 42 -14 14 -38 18 -127
19 -138 2 -160 15 -160 100 0 51 12 76 25 54 3 -5 17 -10 30 -10 13 0 28 -7
33 -15 13 -25 67 -25 67 0 0 16 -7 20 -35 20 -29 0 -36 4 -38 23 -2 12 -7 22
-12 22 -35 0 -78 184 -45 196 8 4 15 14 15 24 0 30 94 117 139 130 22 6 43 15
46 19 3 5 23 12 45 16 22 4 44 14 49 22 15 27 455 25 467 -2 6 -13 19 -20 40
-21 17 -1 41 -10 53 -22 12 -13 34 -22 51 -22 17 0 30 -5 30 -11 0 -5 14 -15
30 -20 17 -6 30 -17 30 -25 0 -8 9 -22 20 -31 11 -10 20 -25 20 -35 0 -9 9
-22 20 -28 12 -7 20 -21 20 -38 l0 -27 -167 0 c-141 0 -168 2 -171 15 -10 47
-70 65 -219 65 -169 0 -196 -11 -201 -83 -3 -40 -2 -40 50 -65 74 -35 110 -40
207 -28 129 16 123 41 -11 49 -59 3 -93 10 -115 24 -34 20 -43 37 -20 39 80 4
194 -5 207 -16 50 -43 116 -57 280 -59 115 -1 163 2 168 11 4 6 20 16 35 22
35 14 41 93 7 111 -11 6 -23 22 -26 36 -3 13 -15 29 -25 35 -11 5 -19 16 -19
24 0 8 -6 15 -14 15 -7 0 -21 11 -30 25 -12 19 -23 24 -37 20 -14 -5 -21 0
-29 19 -7 21 -16 26 -42 26 -22 0 -37 7 -46 20 -9 15 -23 20 -53 20 -22 0 -47
6 -55 14 -32 33 -434 37 -457 5 -8 -10 -33 -18 -71 -21 -40 -3 -61 -10 -68
-21 -5 -10 -19 -17 -31 -17 -12 0 -30 -9 -42 -20 -11 -11 -35 -32 -52 -46 -18
-14 -33 -30 -33 -35 0 -5 -8 -17 -19 -28 -12 -12 -17 -27 -14 -45 3 -14 1 -26
-5 -26 -13 0 -102 86 -102 99 0 5 -9 13 -20 16 -11 3 -20 12 -20 20 0 8 -9 17
-20 20 -11 3 -20 12 -20 20 0 14 -21 25 -50 25 -10 0 -20 10 -23 21 -5 19 -11
21 -41 16 -29 -5 -37 -2 -51 19 -15 23 -19 24 -138 23 -67 0 -129 -3 -137 -6z
m274 -78 c5 -20 12 -25 40 -25 21 0 36 -6 40 -15 3 -8 15 -15 26 -15 11 0 29
-9 40 -20 11 -11 25 -20 30 -20 6 0 10 -4 10 -9 0 -5 16 -26 36 -48 71 -78 87
-136 88 -323 1 -136 -2 -170 -15 -190 -9 -14 -19 -42 -23 -62 -4 -22 -13 -38
-21 -38 -7 0 -16 -8 -19 -18 -4 -10 -20 -29 -37 -43 -18 -13 -47 -39 -65 -56
-19 -20 -43 -33 -58 -33 -14 0 -33 -9 -43 -19 -28 -29 -270 -39 -304 -12 -13
10 -41 21 -61 25 -40 7 -122 80 -139 123 -5 13 -15 23 -23 23 -32 0 -37 -38
-35 -281 1 -152 -2 -244 -9 -251 -9 -9 -310 -13 -319 -4 -7 6 -5 1274 1 1285
14 21 124 14 131 -9 3 -11 13 -20 21 -20 8 0 14 -10 14 -25 0 -34 53 -146 85
-181 25 -27 55 -27 55 -1 0 51 125 207 166 207 12 0 24 6 27 14 3 8 19 17 36
21 17 4 34 13 39 20 5 11 39 15 132 18 69 1 130 4 136 5 7 1 15 -9 18 -23z"/>
<path d="M5180 4020 c-11 -11 -32 -20 -47 -20 -19 0 -40 -14 -75 -52 l-48 -52
0 -103 c0 -80 3 -105 16 -115 8 -7 28 -25 43 -39 63 -57 111 -72 232 -67 92 3
112 6 120 21 6 9 16 17 23 17 26 0 76 56 76 85 0 16 7 36 16 46 22 24 20 85
-2 110 -11 12 -17 33 -16 50 3 39 -53 99 -92 99 -16 0 -39 9 -53 20 -20 16
-41 20 -99 20 -61 0 -78 -4 -94 -20z m170 -65 c7 -8 29 -19 49 -25 28 -7 41
-18 54 -45 9 -19 23 -35 32 -35 24 0 21 -92 -4 -107 -11 -7 -21 -22 -23 -35
-2 -15 -13 -26 -33 -33 -16 -5 -34 -15 -38 -22 -12 -19 -191 -18 -206 1 -7 8
-26 18 -42 21 -16 4 -29 12 -29 18 0 7 -10 18 -21 26 -30 18 -22 142 11 173
11 10 20 23 20 28 0 4 13 11 29 15 16 3 35 13 42 21 16 20 142 20 159 -1z"/>
<path d="M2553 4033 c-7 -2 -13 -10 -13 -17 0 -7 -15 -17 -32 -22 -22 -6 -38
-20 -49 -41 -8 -17 -23 -38 -32 -48 -27 -26 -24 -185 3 -210 11 -10 20 -25 20
-33 0 -9 17 -31 38 -51 l37 -35 147 -2 c138 -2 149 -1 175 19 40 31 86 85 100
116 19 42 16 172 -4 200 -46 60 -76 91 -90 91 -8 0 -26 9 -40 20 -25 19 -221
29 -260 13z m237 -73 c0 -5 16 -16 35 -24 19 -8 35 -21 35 -29 0 -8 7 -17 15
-21 18 -6 22 -136 5 -136 -6 0 -16 -12 -23 -27 -17 -39 -65 -83 -91 -83 -11 0
-35 -4 -51 -9 -64 -18 -157 7 -189 50 -15 22 -32 39 -37 39 -16 0 -11 150 5
156 8 3 17 15 20 27 13 46 62 65 174 66 61 1 102 -3 102 -9z"/>
<path d="M3816 4015 c-14 -14 -34 -25 -50 -25 -22 0 -26 -4 -26 -30 0 -20 -6
-33 -17 -37 -29 -11 -33 -24 -33 -124 0 -82 3 -98 19 -113 11 -10 22 -28 25
-41 3 -13 14 -26 25 -30 10 -3 26 -14 36 -25 28 -31 165 -25 165 7 0 16 -57
43 -91 43 -12 0 -42 20 -68 45 l-46 46 3 79 c3 77 4 80 44 120 l40 40 103 0
c77 0 106 -4 114 -14 7 -8 26 -18 43 -21 17 -4 32 -15 35 -25 3 -10 11 -21 19
-24 24 -9 19 -128 -6 -144 -11 -7 -20 -23 -20 -37 0 -15 -6 -25 -14 -25 -8 0
-21 -8 -28 -18 -7 -11 -30 -22 -51 -26 -73 -14 -53 -66 25 -66 46 0 136 79
163 143 21 51 19 144 -4 189 -22 45 -71 98 -89 98 -8 0 -25 9 -39 20 -43 33
-245 30 -277 -5z"/>
<path d="M6193 3735 c-9 -24 2 -28 90 -35 52 -3 91 -12 107 -22 19 -13 50 -18
120 -19 84 -2 98 -5 118 -25 24 -24 21 -50 -5 -40 -8 3 -35 1 -60 -4 -54 -13
-202 5 -219 26 -17 22 -74 22 -88 1 -9 -15 -7 -21 9 -32 11 -8 28 -22 37 -31
10 -9 37 -20 60 -24 24 -5 69 -14 101 -20 51 -11 63 -11 93 3 19 10 53 17 75
17 55 0 89 34 89 88 0 47 -18 65 -55 56 -22 -5 -31 -2 -44 15 -15 19 -30 23
-111 28 -52 3 -107 12 -122 19 -40 20 -187 19 -195 -1z"/>
</g>
</svg>
