<?xml version="1.0" standalone="no"?>
<!DOCTYPE svg PUBLIC "-//W3C//DTD SVG 20010904//EN"
 "http://www.w3.org/TR/2001/REC-SVG-20010904/DTD/svg10.dtd">
<svg version="1.0" xmlns="http://www.w3.org/2000/svg"
 width="200.000000pt" height="200.000000pt" viewBox="0 0 200.000000 200.000000"
 preserveAspectRatio="xMidYMid meet">
<g transform="translate(0.000000,200.000000) scale(0.100000,-0.100000)"
fill="currentColor" stroke="none">
<path d="M910 1850 c-11 -11 -32 -45 -47 -76 -14 -30 -35 -61 -47 -69 -27 -20
-85 -20 -91 0 -3 8 -7 22 -10 30 -17 53 -105 -67 -105 -142 0 -49 -4 -60 -44
-111 -56 -73 -60 -88 -41 -160 8 -33 15 -76 15 -95 0 -63 32 -53 70 23 12 25
35 57 50 71 22 21 32 44 44 102 27 127 30 133 109 162 27 10 60 32 75 51 26
31 28 32 65 21 42 -13 43 -15 22 -43 -12 -16 -14 -16 -15 -3 0 25 -57 23 -63
-3 -4 -13 -10 -17 -18 -12 -7 4 -10 3 -6 -3 4 -6 -3 -19 -14 -29 -45 -41 -67
-143 -42 -189 9 -15 15 -11 47 31 40 53 141 144 159 144 6 0 34 16 63 36 53
37 79 39 90 9 14 -35 -6 -64 -76 -107 -122 -74 -184 -252 -67 -192 17 9 40 28
52 43 32 40 78 83 100 91 79 29 81 25 26 -66 -22 -36 -43 -79 -46 -96 -4 -17
-20 -51 -36 -76 -16 -25 -29 -50 -29 -54 0 -14 57 -8 70 7 9 11 22 14 41 10
15 -4 37 -1 48 5 17 9 21 8 21 -5 0 -8 -8 -15 -17 -15 -12 0 -14 -3 -6 -8 12
-7 12 -36 1 -48 -4 -3 -11 4 -18 15 -23 44 -78 13 -110 -62 -22 -53 -56 -97
-73 -97 -5 0 -7 6 -4 13 3 8 -3 32 -13 55 -20 44 -47 49 -94 17 -30 -21 -39
-18 -57 18 -19 39 -50 46 -85 18 -33 -26 -39 -26 -64 -1 -37 37 -74 37 -97 0
l-20 -32 -18 39 c-10 21 -27 51 -37 68 l-20 30 7 -70 c11 -122 35 -236 71
-330 47 -123 68 -147 130 -154 55 -7 68 -28 38 -63 -16 -16 -18 -34 -16 -102
3 -97 -3 -106 -133 -176 -155 -84 -196 -128 -230 -249 l-7 -24 68 6 c38 4 186
7 329 7 l260 1 -25 21 c-22 18 -22 20 -5 16 26 -6 48 15 32 31 -8 8 -2 11 22
11 32 0 33 -1 29 -39 l-3 -39 270 -4 c148 -2 272 -3 274 -1 8 6 -32 129 -54
163 -26 41 -63 72 -177 149 -148 98 -176 134 -199 251 -15 79 -32 117 -59 125
-17 6 -20 15 -20 73 0 74 13 107 49 131 l25 16 -18 -28 c-10 -15 -15 -27 -12
-27 4 0 1 -10 -5 -22 -7 -13 11 -1 39 26 28 28 58 54 67 58 10 6 15 24 15 58
0 46 4 54 65 127 73 87 80 116 40 159 -41 44 -35 94 19 157 56 64 66 107 37
171 -24 55 -43 65 -82 42 -51 -30 -89 1 -89 72 0 55 -20 102 -50 117 -40 21
-45 20 -90 -22 l-41 -36 -32 17 c-18 9 -57 32 -87 51 -64 41 -64 41 -90 15z
m30 -165 c0 -3 -2 -5 -5 -5 -3 0 -5 2 -5 5 0 3 2 5 5 5 3 0 5 -2 5 -5z m330
-620 c0 -3 -2 -5 -5 -5 -3 0 -5 2 -5 5 0 3 2 5 5 5 3 0 5 -2 5 -5z m-211 -439
c-9 -8 -10 -3 -5 23 3 18 7 43 8 55 1 11 3 1 5 -23 3 -26 -1 -48 -8 -55z m60
-23 c-26 -31 -16 -173 12 -173 25 0 4 -20 -36 -33 l-45 -16 14 22 c10 15 13
42 10 86 -2 35 1 70 6 76 8 10 0 11 -36 4 -66 -13 -64 -6 8 23 77 32 85 33 67
11z m35 -214 c-10 -16 -87 -49 -98 -41 -6 3 12 16 39 29 56 25 69 28 59 12z
m27 -33 c-19 -22 53 -72 132 -92 87 -21 98 -35 55 -67 -48 -35 -67 -44 -46
-22 28 30 -54 85 -114 76 -4 0 -10 9 -14 22 -10 32 -23 37 -79 31 -58 -7 -52
7 20 45 46 24 62 27 46 7z m214 -176 c-16 -11 -34 -20 -40 -20 -16 1 38 40 55
40 8 0 2 -9 -15 -20z m31 -44 l-10 -44 -18 23 c-23 29 -23 41 0 54 33 20 39
13 28 -33z m-406 14 c-14 -4 -50 -8 -80 -8 -53 1 -54 1 -15 8 59 11 128 11 95
0z m162 -96 c-3 -24 -9 -34 -22 -34 -16 0 -17 5 -9 42 17 74 40 69 31 -8z
m-127 16 c3 -5 4 -10 1 -10 -3 0 -8 5 -11 10 -3 6 -4 10 -1 10 3 0 8 -4 11
-10z m-18 -46 c-3 -3 -12 -4 -19 -1 -8 3 -5 6 6 6 11 1 17 -2 13 -5z"/>
<path d="M1140 1255 c0 -3 2 -5 5 -5 3 0 5 2 5 5 0 3 -2 5 -5 5 -3 0 -5 -2 -5
-5z"/>
<path d="M1160 795 c0 -3 2 -5 5 -5 3 0 5 2 5 5 0 3 -2 5 -5 5 -3 0 -5 -2 -5
-5z"/>
<path d="M1090 75 c0 -3 2 -5 5 -5 3 0 5 2 5 5 0 3 -2 5 -5 5 -3 0 -5 -2 -5
-5z"/>
</g>
</svg>
