<?xml version="1.0" standalone="no"?>
<!DOCTYPE svg PUBLIC "-//W3C//DTD SVG 20010904//EN"
 "http://www.w3.org/TR/2001/REC-SVG-20010904/DTD/svg10.dtd">
<svg version="1.0" xmlns="http://www.w3.org/2000/svg"
 width="500.000000pt" height="500.000000pt" viewBox="0 0 500.000000 500.000000"
 preserveAspectRatio="xMidYMid meet">

<g transform="translate(0.000000,500.000000) scale(0.100000,-0.100000)"
fill="#000000" stroke="none">
<path d="M1052 3389 c-19 -6 -41 -23 -53 -42 -18 -31 -19 -49 -17 -430 l3
-399 33 -29 32 -29 395 0 395 0 0 245 0 245 33 0 c48 0 202 -35 285 -65 137
-48 306 -137 513 -268 28 -18 29 -18 29 1 0 25 -114 172 -206 268 -246 253
-522 411 -849 484 -71 16 -139 21 -325 25 -147 3 -247 1 -268 -6z"/>
<path d="M3120 2314 l0 -245 -45 5 c-25 3 -66 9 -92 12 -128 15 -406 135 -598
257 -56 35 -106 67 -113 71 -32 20 -6 -37 54 -117 195 -259 490 -482 774 -585
191 -69 278 -83 550 -89 191 -5 231 -3 263 10 66 28 67 37 67 459 0 335 -2
377 -18 408 -9 19 -28 40 -42 47 -19 10 -123 13 -412 13 l-388 0 0 -246z"/>
</g>
</svg>
