<?xml version="1.0" standalone="no"?>
<!DOCTYPE svg PUBLIC "-//W3C//DTD SVG 20010904//EN"
 "http://www.w3.org/TR/2001/REC-SVG-20010904/DTD/svg10.dtd">
<svg version="1.0" xmlns="http://www.w3.org/2000/svg"
 width="600.000000pt" height="602.000000pt" viewBox="0 0 600.000000 602.000000"
 preserveAspectRatio="xMidYMid meet">
<g transform="translate(0.000000,602.000000) scale(0.066667,-0.066667)"
fill="#000000" stroke="none">
<path d="M3682 5895 c-128 -19 -280 -138 -300 -235 -30 -148 -37 -155 -97
-105 -115 97 -253 -15 -203 -164 13 -37 23 -85 23 -106 0 -59 67 -184 151
-283 41 -49 74 -94 74 -100 0 -19 -112 -14 -132 6 -30 30 -289 35 -372 6 -39
-13 -89 -24 -110 -24 -21 0 -69 -17 -106 -37 -37 -20 -82 -43 -99 -51 -152
-71 -271 -358 -236 -576 l9 -56 -345 0 -346 0 -9 34 c-5 18 -9 267 -9 552 0
484 -2 521 -27 544 -43 38 -459 37 -477 -1 -7 -15 -15 -371 -18 -791 l-5 -765
33 -27 c30 -24 81 -26 627 -26 690 0 658 -6 665 130 l5 84 84 -70 c46 -38 93
-69 105 -69 12 0 28 -6 36 -14 107 -103 601 -108 789 -7 22 11 50 21 62 21 32
0 197 167 230 233 35 70 50 69 87 -1 55 -106 177 -207 324 -267 160 -65 513
-82 648 -31 203 78 346 187 387 295 10 27 24 62 30 79 7 16 20 50 28 75 10 32
15 -81 16 -392 1 -532 -22 -486 250 -486 257 1 238 -22 243 284 5 249 17 303
55 241 5 -8 52 -38 104 -67 242 -136 581 -40 740 208 l38 59 27 -56 c50 -103
159 -179 335 -236 119 -38 587 -41 678 -5 154 62 215 99 273 165 l62 70 9 -43
c44 -210 294 -276 442 -118 79 85 41 332 -56 369 -80 31 -253 17 -301 -23 -57
-48 -51 -51 -86 38 -47 122 -115 176 -314 251 -25 10 -110 24 -188 32 -160 16
-355 51 -371 67 -59 59 277 48 338 -11 l43 -41 231 4 c225 4 232 5 236 37 12
85 -91 262 -184 315 -81 47 -166 80 -205 80 -24 0 -68 10 -98 23 -36 15 -105
22 -207 22 -99 0 -177 -8 -218 -22 -35 -13 -83 -23 -106 -23 -109 0 -299 -147
-325 -252 l-14 -55 -31 60 c-54 105 -227 247 -300 247 -14 0 -46 10 -69 23
-85 43 -258 22 -415 -51 -53 -24 -210 -172 -210 -198 0 -8 -7 -14 -15 -14 -17
0 -90 138 -90 171 0 49 -44 69 -156 69 -146 0 -144 5 -146 -262 -1 -191 -4
-218 -18 -173 -10 29 -22 59 -27 68 -5 8 -13 32 -18 54 -28 118 -252 292 -402
313 -46 7 -99 20 -115 29 -17 9 -89 16 -159 16 -126 0 -130 1 -219 62 -108 75
-108 72 -17 114 153 70 237 235 201 391 -9 39 -21 87 -25 108 -42 194 -395
333 -722 285z m338 -72 c171 -41 322 -170 310 -265 -46 -369 -41 -359 -184
-428 -76 -36 -96 -53 -96 -80 0 -37 54 -92 68 -70 9 16 58 -11 142 -78 50 -40
58 -42 222 -42 114 0 187 -7 218 -21 26 -11 87 -36 135 -56 79 -31 205 -129
205 -160 0 -7 14 -28 32 -46 126 -136 68 -561 -93 -674 -15 -10 -36 -27 -47
-37 -38 -37 -96 -67 -147 -78 -29 -6 -62 -19 -73 -28 -36 -29 -480 -21 -538
10 -26 14 -58 25 -71 25 -22 0 -155 88 -204 135 -31 29 -89 126 -89 148 0 9
-14 31 -31 48 -51 51 -21 352 50 509 22 47 122 145 161 158 64 20 -17 127 -96
127 -11 0 -39 9 -63 21 -43 21 -141 17 -141 -6 0 -6 34 -16 75 -21 41 -6 75
-16 75 -23 0 -7 17 -17 38 -22 36 -9 52 -37 22 -41 -30 -4 -38 -6 -55 -17 -43
-27 -160 -32 -150 -6 7 21 -1 25 -50 25 -66 0 -81 24 -24 39 54 13 59 44 8 48
-31 2 -48 -6 -61 -31 -10 -18 -30 -42 -45 -53 -39 -27 -36 -37 32 -116 117
-134 207 -489 143 -562 -11 -12 -34 -53 -51 -90 -42 -89 -148 -199 -234 -243
-172 -87 -542 -113 -696 -48 -28 11 -60 21 -72 21 -42 0 -245 169 -245 204 0
34 -36 50 -66 28 -24 -18 -28 -38 -25 -132 2 -76 -4 -114 -17 -124 -11 -8
-257 -10 -589 -6 l-570 8 -5 712 c-2 392 0 728 4 746 8 33 15 34 167 34 239 0
216 63 216 -583 0 -408 5 -556 18 -569 13 -13 120 -18 387 -18 436 0 405 -14
405 183 0 81 6 159 13 173 8 15 26 57 42 94 36 89 162 210 255 245 40 15 96
37 125 50 79 32 460 21 561 -17 83 -31 118 -21 127 38 3 20 18 54 34 76 15 22
28 51 28 64 0 41 97 78 141 55 38 -20 237 -18 258 3 19 19 -4 28 -102 41 -128
17 -180 35 -256 86 -117 79 -168 68 -102 -21 34 -48 48 -119 21 -114 -10 2
-24 -17 -33 -41 -8 -25 -26 -45 -40 -45 -33 0 -82 28 -82 47 0 9 -19 41 -41
71 -48 63 -88 142 -100 199 -5 22 -13 50 -17 62 -6 16 2 19 35 15 32 -5 53 3
75 26 22 24 43 32 71 26 45 -8 67 30 67 118 0 98 79 211 182 261 36 18 76 38
88 46 28 17 255 8 345 -13z m-817 -303 c5 -8 2 -15 -7 -15 -9 0 -16 7 -16 15
0 8 3 15 7 15 3 0 10 -7 16 -15z m3072 -682 c13 -13 31 -23 41 -23 21 0 149
-78 149 -91 0 -5 20 -31 44 -57 99 -112 153 -491 84 -596 -13 -19 -23 -45 -23
-58 0 -37 -167 -195 -246 -232 -203 -98 -505 -21 -619 158 -38 59 -50 -11 -50
-303 l0 -287 -49 -6 c-27 -3 -113 -6 -191 -6 l-142 1 -4 734 c-3 403 1 739 8
746 48 48 198 -12 198 -79 0 -45 73 -192 103 -208 26 -14 34 -7 63 54 39 81
111 167 156 187 17 7 58 30 91 50 74 46 346 56 387 16z m1293 0 c16 -12 42
-22 57 -23 63 -1 198 -90 245 -162 85 -130 85 -130 -127 -135 l-185 -4 -55 46
c-76 62 -353 70 -417 10 -90 -83 17 -149 271 -166 137 -10 174 -17 362 -73
212 -62 313 -229 230 -381 -20 -36 -43 -65 -53 -65 -9 0 -29 -13 -43 -30 -15
-16 -37 -30 -48 -30 -11 0 -20 -7 -20 -15 0 -8 -17 -15 -38 -15 -21 0 -60 -11
-86 -25 -81 -42 -556 -36 -684 8 -125 44 -189 89 -251 176 -93 130 -82 141
131 141 l181 0 61 -48 c71 -56 208 -78 361 -56 106 15 130 33 130 97 0 60
-102 96 -352 125 -353 41 -454 84 -531 227 -72 134 88 375 250 375 8 0 34 10
58 22 61 33 511 33 553 1z m-740 -594 c31 -16 72 -29 91 -29 19 0 41 -6 49
-13 17 -16 272 -59 423 -72 102 -9 159 -35 132 -62 -6 -6 -87 -10 -181 -10
l-170 0 -51 48 -50 49 -189 0 c-214 0 -210 -2 -196 125 l8 68 39 -38 c22 -20
65 -50 95 -66z"/>
<path d="M3578 5657 c-46 -10 -52 -19 -113 -161 -35 -82 -31 -132 13 -168 49
-40 176 -93 223 -93 26 0 86 -10 134 -22 289 -76 474 121 305 324 -44 53 -132
81 -345 112 -156 22 -153 22 -217 8z m86 -143 c24 -37 11 -98 -26 -123 -84
-54 -161 77 -79 134 34 24 85 19 105 -11z m357 -39 c20 0 56 -79 48 -105 -29
-90 -173 -70 -173 25 0 46 56 101 90 88 12 -4 27 -8 35 -8z"/>
<path d="M2888 4562 c-104 -41 -126 -56 -156 -113 -47 -89 -45 -229 5 -308 61
-97 84 -106 271 -106 l166 0 66 68 c113 115 99 348 -25 412 -23 13 -47 29 -52
36 -13 18 -236 26 -275 11z m238 -63 c153 -39 168 -322 20 -396 -98 -49 -283
-21 -350 53 -58 65 -39 280 28 316 82 44 194 54 302 27z"/>
<path d="M4324 4564 c-19 -3 -34 -12 -34 -18 0 -7 -16 -17 -36 -22 -99 -25
-138 -277 -62 -399 53 -83 74 -90 266 -90 l171 0 63 65 c59 59 64 72 73 167
22 230 -158 352 -441 297z m233 -57 c107 -32 146 -88 144 -210 -1 -149 -63
-210 -226 -225 -167 -14 -259 64 -260 221 0 152 40 201 184 222 43 6 79 12 80
13 0 1 35 -8 78 -21z"/>
<path d="M5843 4546 c-5 -9 -23 -16 -40 -16 -80 0 -148 -107 -150 -234 l-1
-118 70 -63 c149 -136 465 -92 508 70 30 114 11 250 -43 300 -57 54 -319 101
-344 61z m216 -61 c163 -46 192 -254 50 -347 -61 -41 -260 -39 -327 2 -105 66
-108 215 -5 310 54 49 179 65 282 35z"/>
</g>
</svg>
