<?xml version="1.0" standalone="no"?>
<!DOCTYPE svg PUBLIC "-//W3C//DTD SVG 20010904//EN"
 "http://www.w3.org/TR/2001/REC-SVG-20010904/DTD/svg10.dtd">
<svg version="1.0" xmlns="http://www.w3.org/2000/svg"
 width="600.000000pt" height="221.000000pt" viewBox="0 0 600.000000 221.000000"
 preserveAspectRatio="xMidYMid meet">
<g transform="translate(0.000000,221.000000) scale(0.100000,-0.100000)"
fill="#000000" stroke="none">
<path d="M1542 2112 l-153 -87 -2 -748 -2 -747 163 0 162 0 0 835 c0 459 -3
835 -7 835 -5 -1 -77 -40 -161 -88z"/>
<path d="M3246 2112 l-158 -87 6 -520 c6 -554 7 -568 58 -670 91 -180 313
-286 632 -302 l119 -6 -5 29 c-3 16 -15 91 -28 167 l-24 137 -76 0 c-142 0
-236 28 -292 87 -52 54 -58 85 -58 293 l0 190 190 0 c105 0 190 4 190 8 0 5
-13 76 -30 157 -16 81 -30 150 -30 152 0 2 -72 3 -160 1 l-160 -3 0 228 c0
125 -3 227 -7 226 -5 0 -79 -39 -167 -87z"/>
<path d="M4362 2180 c-481 -126 -644 -730 -291 -1080 410 -408 1098 -122 1099
456 0 187 -55 320 -190 455 -166 167 -392 228 -618 169z m294 -339 c117 -52
179 -150 179 -286 0 -368 -516 -434 -610 -78 -67 251 191 469 431 364z"/>
<path d="M2318 1770 c-299 -37 -477 -246 -495 -580 -21 -404 222 -680 597
-680 291 1 547 187 586 428 l7 42 -177 0 -176 0 -19 -37 c-39 -77 -109 -112
-222 -113 -142 0 -249 86 -274 223 l-7 37 441 0 441 0 -6 88 c-26 389 -320
638 -696 592z m173 -335 c91 -32 153 -113 161 -208 l3 -39 -253 -1 -252 -2 0
29 c0 161 179 278 341 221z"/>
<path d="M5858 1770 c-132 -23 -271 -163 -343 -347 -40 -104 -39 -102 -43 -55
-4 57 21 140 69 230 26 50 39 86 39 113 l0 39 -162 0 -163 0 -3 -610 -3 -610
166 0 165 0 0 305 c0 181 4 324 11 355 29 137 147 221 332 239 l68 6 1 170 0
170 -43 2 c-24 0 -65 -3 -91 -7z"/>
<path d="M160 1741 c-69 -15 -131 -30 -138 -32 -11 -4 -20 -1684 -9 -1695 1
-2 72 18 157 45 l155 47 0 226 0 226 -58 61 c-71 74 -119 172 -124 250 -3 48
-2 53 8 31 63 -137 76 -158 153 -236 153 -154 315 -195 541 -138 368 94 546
545 365 923 -155 323 -595 430 -822 199 l-58 -59 0 91 c0 107 15 101 -170 61z
m611 -330 c123 -58 184 -160 177 -293 -21 -384 -591 -386 -616 -3 -14 229 231
394 439 296z"/>
<path d="M4000 969 c0 -7 12 -87 27 -177 l27 -165 63 -28 c147 -67 223 -83
408 -83 148 -1 181 2 254 22 72 20 230 84 232 94 8 50 46 344 44 346 -2 2 -28
-17 -59 -42 -250 -203 -680 -203 -938 0 -32 25 -58 40 -58 33z"/>
</g>
</svg>
