<?xml version="1.0" standalone="no"?>
<!DOCTYPE svg PUBLIC "-//W3C//DTD SVG 20010904//EN"
 "http://www.w3.org/TR/2001/REC-SVG-20010904/DTD/svg10.dtd">
<svg version="1.0" xmlns="http://www.w3.org/2000/svg"
 width="600.000000pt" height="600.000000pt" viewBox="0 0 600.000000 600.000000"
 preserveAspectRatio="xMidYMid meet">
<g transform="translate(0.000000,600.000000) scale(0.100000,-0.100000)"
fill="#000000" stroke="none">
<path d="M476 5545 c-10 -26 -7 -1112 4 -1280 5 -82 12 -261 16 -396 l7 -246
191 -7 c105 -3 211 -10 236 -16 25 -5 93 -9 153 -10 l107 0 0 -30 c0 -16 -4
-30 -9 -30 -4 0 -22 -21 -39 -47 -40 -60 -131 -175 -183 -230 -21 -22 -39 -45
-39 -50 0 -4 -21 -31 -46 -58 -25 -28 -71 -84 -103 -125 -32 -42 -66 -82 -76
-90 -10 -8 -44 -48 -75 -90 -32 -41 -71 -88 -87 -105 -16 -16 -35 -44 -41 -60
-10 -23 -13 -290 -15 -1100 l-2 -1070 2261 -3 2260 -2 49 57 c27 32 55 62 62
66 7 4 13 14 13 21 0 7 27 43 60 79 33 36 60 68 60 72 0 9 33 51 79 100 20 22
47 56 58 75 12 19 36 49 53 65 18 17 50 56 71 88 l39 59 -2 751 -3 752 -327 3
-328 2 0 23 c0 13 14 36 30 52 17 16 30 34 30 39 0 6 14 27 31 46 16 19 51 62
76 95 26 33 64 78 85 100 20 22 54 63 75 91 21 27 55 68 76 91 21 22 54 63 75
90 20 27 62 75 92 107 101 105 92 -13 87 1096 -3 536 -8 985 -12 997 -4 12
-14 25 -23 29 -10 5 -1143 10 -2518 12 -2324 3 -2502 2 -2508 -13z m3434
-4306 c0 -5 -11 -9 -25 -9 -28 0 -34 16 -7 23 20 4 32 -1 32 -14z m-2662 -47
c4 -61 6 -57 -101 -123 -37 -23 -66 -47 -64 -53 2 -6 38 -13 83 -16 l79 -5 0
-50 0 -50 -175 -2 c-96 -2 -181 1 -188 5 -7 5 -15 25 -19 45 -6 42 12 63 115
129 85 56 82 68 -18 68 -70 0 -81 2 -90 21 -13 23 -5 70 13 81 7 5 91 7 187 5
l175 -2 3 -53z m311 18 c23 -44 47 -100 55 -122 11 -36 40 -20 64 35 54 125
50 122 137 125 48 2 82 -1 91 -9 19 -15 21 -318 2 -337 -13 -13 -76 -16 -95
-4 -7 5 -13 39 -15 87 -2 51 -7 80 -15 83 -7 2 -16 -5 -19 -15 -7 -24 -32 -79
-55 -123 -17 -33 -21 -35 -70 -35 l-52 0 -28 55 c-16 30 -33 68 -37 85 -5 16
-16 31 -25 33 -15 3 -17 -7 -17 -81 0 -79 -1 -85 -22 -91 -37 -9 -73 -7 -86 6
-17 17 -17 319 0 336 9 9 39 12 91 10 l78 -3 18 -35z m579 28 c8 -8 12 -60 12
-169 0 -178 -2 -182 -72 -177 l-43 3 -3 165 c-1 90 0 170 2 177 7 17 88 17
104 1z m451 -4 c22 -9 47 -26 55 -39 21 -32 20 -96 -1 -135 -17 -30 -17 -32 0
-45 14 -10 17 -24 15 -67 l-3 -53 -43 -3 c-53 -4 -72 10 -72 55 l0 34 -82 -3
-83 -3 -3 -30 c-5 -41 -19 -55 -54 -55 -67 0 -68 4 -68 180 0 141 2 160 18
169 29 17 275 14 321 -5z m515 -4 c24 -10 55 -35 69 -54 23 -30 27 -44 27
-106 0 -62 -4 -76 -27 -106 -39 -52 -96 -74 -191 -74 -126 0 -186 35 -218 127
-18 52 -18 54 0 105 32 93 87 126 214 127 62 1 94 -4 126 -19z m319 -85 c27
-55 52 -107 57 -115 11 -22 39 -24 46 -3 4 10 29 64 56 121 l49 102 50 0 c59
0 70 -16 47 -64 -9 -17 -19 -38 -22 -46 -3 -8 -10 -22 -15 -30 -5 -8 -31 -60
-58 -115 l-48 -100 -83 0 -83 0 -19 35 c-18 36 -102 213 -114 240 -3 8 -11 22
-18 31 -23 33 -3 50 54 47 l53 -3 48 -100z"/>
<path d="M2379 1134 c-23 -28 1 -49 64 -52 60 -3 97 9 97 33 0 22 -34 35 -93
35 -38 0 -59 -5 -68 -16z"/>
<path d="M2923 1138 c-32 -16 -48 -61 -34 -97 22 -52 108 -69 162 -30 40 28
41 88 3 118 -29 23 -93 27 -131 9z"/>
</g>
</svg>
